<?xml version="1.0" encoding="UTF-8"?>
<svg id="Capa_1" xmlns="http://www.w3.org/2000/svg" version="1.1" viewBox="0 0 277.9 209.43">
  <!-- Generator: Adobe Illustrator 30.1.0, SVG Export Plug-In . SVG Version: 2.1.1 Build 136)  -->
  <defs>
    <style>
      .st0 {
        fill: none;
      }

      .st1 {
        fill: #010101;
      }

      .st2 {
        fill: #cd151b;
      }

      .st3 {
        fill: #fff;
      }
    </style>
  </defs>
  <g>
    <path class="st3" d="M192.07,163.18v-5.34c24.12-18.04,37.44-47.16,34.82-77.84C223.1,35.74,186.06,1.05,141.64,0,92.34-1.16,51.86,38.61,51.86,87.65c0,27.82,13.04,53.66,35.14,70.2v5.34c0,1.87.4,3.64,1.11,5.24h102.84c.71-1.61,1.11-3.38,1.11-5.24Z"/>
    <path class="st3" d="M0,182.89v12.07c0,7.99,6.48,14.46,14.46,14.46h248.98c7.99,0,14.46-6.48,14.46-14.46v-12.07c0-7.99-6.48-14.46-14.46-14.46H14.46c-7.99,0-14.46,6.48-14.46,14.46Z"/>
  </g>
  <g>
    <g>
      <path class="st0" d="M138.95,16.07c-39.54,0-71.59,32.05-71.59,71.59,0,23.68,11.5,44.67,29.22,57.7,1.82,1.34,3.71,2.6,5.66,3.76v11.24h73.41v-11.24c1.95-1.17,3.84-2.42,5.66-3.76,17.72-13.03,29.22-34.02,29.22-57.7,0-39.54-32.05-71.59-71.59-71.59ZM138.95,21.99c20.48,0,38.78,9.38,50.82,24.08l-39.41,38.77h-4.9c-.31-1.2-.95-2.26-1.81-3.1l16.42-27.45-2.69-1.61-16.42,27.45c-.64-.2-1.31-.32-2.01-.32-1.01,0-1.97.23-2.83.63-1.8.84-3.16,2.44-3.67,4.4h-4.9l-39.41-38.77c12.04-14.7,30.33-24.08,50.82-24.08ZM138.95,153.32c-36.27,0-65.66-29.4-65.66-65.66,0-14.02,4.4-27.01,11.88-37.67l35.43,34.85,3.46,3.4h8.38c.51,1.96,1.87,3.56,3.67,4.4.86.4,1.82.63,2.83.63s1.97-.23,2.83-.63c1.8-.84,3.16-2.44,3.67-4.4h8.38l3.46-3.4,35.43-34.85c7.48,10.66,11.88,23.65,11.88,37.67,0,36.27-29.4,65.66-65.66,65.66Z"/>
      <path class="st1" d="M192.74,49.98l-35.43,34.85-3.46,3.4h-8.38c-.51,1.96-1.87,3.56-3.67,4.4-.86.4-1.82.63-2.83.63s-1.97-.23-2.83-.63c-1.8-.84-3.16-2.44-3.67-4.4h-8.38l-3.46-3.4-35.43-34.85c-7.48,10.66-11.88,23.65-11.88,37.67,0,36.27,29.4,65.66,65.66,65.66s65.66-29.4,65.66-65.66c0-14.02-4.4-27.01-11.88-37.67Z"/>
      <path class="st2" d="M132.44,84.83c.51-1.96,1.87-3.56,3.67-4.4.86-.4,1.82-.63,2.83-.63.7,0,1.38.12,2.01.32l16.42-27.45,2.69,1.61-16.42,27.45c.86.84,1.49,1.91,1.81,3.1h4.9l39.41-38.77c-12.04-14.7-30.33-24.08-50.82-24.08s-38.78,9.38-50.82,24.08l39.41,38.77h4.9Z"/>
      <path class="st1" d="M138.95,10.14c-42.81,0-77.51,34.7-77.51,77.51,0,27.17,13.98,51.07,35.14,64.91v10.62c0,1.56,1.27,2.83,2.83,2.83h2.83s73.41,0,73.41,0h0s2.83,0,2.83,0c1.56,0,2.83-1.27,2.83-2.83v-10.62c21.16-13.84,35.14-37.74,35.14-64.91,0-42.81-34.7-77.51-77.51-77.51ZM181.32,145.36c-1.82,1.34-3.71,2.6-5.66,3.76v11.24h-73.41v-11.24c-1.95-1.17-3.84-2.42-5.66-3.76-17.72-13.03-29.22-34.02-29.22-57.7,0-39.54,32.05-71.59,71.59-71.59s71.59,32.05,71.59,71.59c0,23.68-11.5,44.67-29.22,57.7Z"/>
    </g>
    <g>
      <g>
        <path class="st1" d="M212.72,193.53c-.57.14-.94.23-1.11.26-.16.03-.34.05-.54.08-.23.02-.48.06-.77.11h-.85c-1.1,0-2.14-.2-3.08-.59-.91-.38-1.6-.83-2.05-1.36-.4-.45-.64-1.04-.75-1.87-.04-.24-.07-.46-.07-.64,0-.29.06-.62.19-1.01.3-.91.96-1.82,1.97-2.69,1.08-.94,2.3-1.65,3.62-2.1.79-.25,1.85-.48,3.13-.69l1.28-.21-1.01-5.23-1.12.23c-.77.16-1.47.32-2.09.49-.63.17-1.21.36-1.73.55-.77.27-1.68.71-2.77,1.33-1.37.77-2.39,1.49-3.15,2.24-.9.95-1.61,1.86-2.14,2.71-.44.75-.8,1.59-1.05,2.49-.26.92-.39,1.81-.39,2.67,0,1.47.44,2.87,1.3,4.16.72,1.08,1.67,1.99,2.81,2.69,1.08.67,2.22,1.16,3.39,1.46,1.14.3,2.4.44,3.72.44.58,0,1.07-.02,1.48-.05.39-.03,1.03-.11,1.92-.23.11-.01.24-.03.4-.04l1.21-.11-.46-5.4-1.3.32Z"/>
        <path class="st1" d="M223.2,179.7l.05-1.42h-6.16l.12,9.46-.08,10.85h6.11l-.04-1.42c-.04-1.36-.08-2.86-.12-4.5-.04-1.63-.06-3.22-.06-4.75,0-1.32.02-2.71.06-4.17.04-1.48.08-2.83.12-4.05Z"/>
        <path class="st1" d="M259.29,186.52c-1.64-.97-2.32-1.52-2.6-1.79.11-.14.32-.37.75-.64.9-.59,2.18-1.03,3.8-1.32l1.53-.27-1.58-5.22-1.31.39c-.24.07-.43.12-.62.17-1.03.3-1.73.52-2.11.66-1.85.73-3.28,1.52-4.35,2.41-1.46,1.22-2.2,2.57-2.2,4.02,0,1.21.54,2.32,1.6,3.29.61.55,1.57,1.2,2.93,1.97.44.25,1.13.6,2.05,1.05.32.22.32.35.32.4,0,.2,0,.68-1.08,1.21-.55.27-1.7.69-4.11,1.15l-1.62.31,1.95,5.03,1.19-.32c1.72-.46,2.95-.82,3.77-1.1,1.21-.43,2.12-.89,2.75-1.35,1.1-.75,1.84-1.44,2.27-2.12.47-.75.7-1.74.7-3.05,0-1.69-1.32-3.28-4.04-4.88Z"/>
        <path class="st1" d="M135.41,180.35c-2.16-1.32-4.89-1.99-8.02-1.99h-.02c-.6-.03-1.17-.06-1.72-.07-.53,0-1.05-.01-1.56-.01h-1.49l-.04,20.27h6.32v-5.45c.07-.02.14-.03.22-.05.56-.13,1.02-.27,1.36-.39,1.23-.41,2.5-1.04,3.77-1.89,1.1-.71,1.89-1.34,2.39-1.92.51-.58.89-1.17,1.12-1.74.24-.59.36-1.2.36-1.83,0-2.12-.93-3.83-2.69-4.94ZM132.39,185.33c.12,2.23-4.41,3.94-4.41,3.94v-7c4.59,0,4.41,3.06,4.41,3.06Z"/>
        <path class="st1" d="M148.46,176.52l-11.76,20.31,5.07,2.99,2.15-4.45,9.55-.14,2.62,4.55,5.07-3.08-12.71-20.18ZM145.95,191.26l2.62-4.94,2.62,4.94h-5.23Z"/>
        <g>
          <polygon class="st1" points="183.27 188.12 185.28 188.05 184.27 186.31 183.27 188.12"/>
          <polygon class="st1" points="173.95 193.51 173.95 193.51 173.95 193.53 173.95 193.51"/>
          <path class="st1" d="M174.07,193.51l-6.16.1v-7.53s.24-7.75.24-7.75h-5.95l.04,1.42c.04,1.52.07,3.02.08,4.5.01,1.49.02,3.39.02,5.67l-.16,8.64,13.34.32v-5.35l-1.46-.03Z"/>
        </g>
        <path class="st1" d="M186.21,176.46l-11.76,20.31,5.07,2.99,2.15-4.45,9.55-.14,2.62,4.55,5.07-3.08-12.71-20.18ZM183.7,191.21l2.62-4.94,2.62,4.94h-5.23Z"/>
        <path class="st1" d="M248.73,183.26c-.61-1.33-1.51-2.42-2.59-3.17-1.15-.92-2.38-1.55-3.66-1.87-1.2-.3-2.58-.45-4.1-.45-1.2,0-2.35.17-3.42.5-1.05.33-2.07.79-3.04,1.39-.98.61-1.88,1.38-2.66,2.27-.9,1.02-1.56,2.11-1.99,3.3l-.51,1.69c-.08.37-.14.75-.17,1.13-.03.35-.04.69-.04,1.02,0,.2,0,.4.02.59l.06.85c.24,1.72.85,3.21,1.81,4.42.87,1.11,2.07,2.04,3.55,2.74,1.67.8,3.49,1.21,5.4,1.21h.45c.23,0,.45-.01.65-.03,1.84-.13,3.49-.54,4.91-1.23,1.44-.7,2.69-1.69,3.72-2.94,1.64-2.01,2.47-4.28,2.47-6.76,0-1.8-.3-3.37-.89-4.67ZM238.11,194.88c-2.71,0-4.9-2.97-4.9-6.63s2.19-6.63,4.9-6.63,4.9,2.97,4.9,6.63-2.19,6.63-4.9,6.63Z"/>
      </g>
      <g>
        <path class="st2" d="M33.35,195.1v-5.77l-5.73-.09.11,2.54-.04,2.14c-.9.11-2.03.09-3.01-.05-.53-.08-1.08-.22-1.62-.42-2.28-.84-2.57-2.16-2.57-3.21,0-.73.18-1.39.56-1.99.35-.56.93-1.18,1.73-1.86.71-.62,1.43-1.13,2.15-1.52.72-.4,1.66-.79,2.77-1.15.79-.25,1.69-.45,2.65-.61l.77-.12-.63-5.56-1.3.34c-1.22.32-2.34.67-3.33,1.02-.98.35-1.9.72-2.74,1.11-1.17.56-2.29,1.23-3.34,1.99-1.3.94-2.32,1.92-3.04,2.9-.71.96-1.2,1.78-1.52,2.5-.41.95-.62,2-.62,3.1,0,.89.13,1.71.39,2.42.25.69.64,1.38,1.16,2.05.74.92,1.54,1.67,2.38,2.21.83.54,1.87.99,3.17,1.39,1.09.36,2.17.54,3.2.54,1.5,0,2.83-.07,3.94-.2,1.13-.13,2.36-.39,3.65-.75l1.12-.32-.15-1.19c-.06-.47-.09-.95-.09-1.44Z"/>
        <path class="st2" d="M68.8,179.52c.07.81.11,1.63.14,2.48.02.86.03,1.81.03,2.84,0,2.21-.1,3.96-.3,5.2-.24,1.44-.76,2.49-1.55,3.11-.64.5-1.44.75-2.46.75-.94,0-1.72-.26-2.38-.8-.8-.64-1.34-1.58-1.64-2.87-.19-.8-.29-1.51-.3-2.12-.01-.7-.02-1.48-.02-2.33,0-.6.05-1.87.14-3.8.02-.53.06-1.24.1-2.13l.08-1.45h-5.95l-.18,5.59c0,.17.02.8.07,1.89.05,1.03.07,1.82.07,2.37s.01.98.04,1.31c.03.35.09.79.2,1.35.53,2.37,1.59,4.29,3.17,5.71,1.74,1.58,3.95,2.37,6.57,2.37s4.65-.65,6.29-1.94c1.43-1.12,2.45-2.66,3-4.54.35-1.09.56-1.82.64-2.32.08-.49.12-1.05.12-1.67v-10.5h-6.01l.12,1.49Z"/>
        <path class="st2" d="M53.63,195.01c-1.2-1.24-2.4-2.48-3.59-3.73-.69-.72-1.28-1.34-1.76-1.86,5.18-1.9,4.76-5.86,4.76-5.86-.22-3.12-4.78-4.37-6.97-4.79-.18-.05-.34-.09-.48-.1l-1.09-.13c-1.04-.08-2.13-.15-3.28-.19-1.15-.04-2.15-.06-2.99-.06h-1.38v20.32h6.02l-.13-6.73-.03-9.81s7.79-.18.97,7.5l6.34,10.17,4.7-3.6-1.08-1.11Z"/>
        <path class="st2" d="M90.94,180.4c-2.16-1.32-4.89-1.99-8.02-1.99h-.02c-.6-.03-1.17-.06-1.72-.07-.53,0-1.05-.01-1.56-.01h-1.49l-.04,20.27h6.32v-5.45c.07-.02.14-.03.22-.05.56-.13,1.02-.27,1.36-.39,1.23-.41,2.5-1.04,3.77-1.89,1.1-.71,1.89-1.34,2.39-1.92.51-.58.89-1.17,1.12-1.74.24-.59.36-1.2.36-1.83,0-2.12-.93-3.83-2.69-4.94ZM87.91,185.38c.12,2.23-4.41,3.94-4.41,3.94v-7c4.59,0,4.41,3.06,4.41,3.06Z"/>
        <path class="st2" d="M116.27,183.1c-.61-1.33-1.51-2.42-2.59-3.17-1.15-.92-2.38-1.55-3.66-1.87-1.2-.3-2.58-.45-4.1-.45-1.2,0-2.35.17-3.42.5-1.05.33-2.07.79-3.04,1.39-.98.61-1.88,1.38-2.66,2.27-.9,1.02-1.56,2.11-1.99,3.3l-.51,1.69c-.08.37-.14.75-.17,1.13-.03.35-.04.69-.04,1.02,0,.2,0,.4.02.59l.06.85c.24,1.72.85,3.21,1.81,4.42.87,1.11,2.07,2.04,3.55,2.74,1.67.8,3.49,1.21,5.4,1.21h.45c.23,0,.45-.01.65-.03,1.84-.13,3.49-.54,4.91-1.23,1.44-.7,2.69-1.69,3.72-2.94,1.64-2.01,2.47-4.28,2.47-6.76,0-1.8-.3-3.37-.89-4.67ZM105.65,194.72c-2.71,0-4.9-2.97-4.9-6.63s2.19-6.63,4.9-6.63,4.9,2.97,4.9,6.63-2.19,6.63-4.9,6.63Z"/>
      </g>
    </g>
  </g>
</svg>