<?xml version="1.0" encoding="UTF-8"?>
<svg id="Capa_1" xmlns="http://www.w3.org/2000/svg" version="1.1" viewBox="0 0 1037.5 96.9">
  <!-- Generator: Adobe Illustrator 30.1.0, SVG Export Plug-In . SVG Version: 2.1.1 Build 136)  -->
  <defs>
    <style>
      .st0 {
        fill: none;
      }

      .st1 {
        fill: #1e1e1c;
      }

      .st2 {
        fill: #c51d1a;
      }
    </style>
  </defs>
  <g>
    <g>
      <path class="st1" d="M840.08,67.94c-2.05.51-3.39.82-4.01.92-.56.1-1.23.21-1.95.26-.82.1-1.75.21-2.77.36h-3.08c-3.95,0-7.7-.72-11.14-2.16-3.29-1.39-5.75-3.03-7.45-4.88-1.44-1.64-2.31-3.75-2.72-6.73-.15-.87-.26-1.64-.26-2.31,0-1.03.21-2.26.72-3.65,1.08-3.29,3.49-6.57,7.14-9.7,3.9-3.39,8.32-5.96,13.09-7.6,2.88-.92,6.68-1.75,11.35-2.46l4.62-.72-3.65-18.9-4.06.82c-2.77.56-5.29,1.13-7.55,1.8-2.31.62-4.36,1.28-6.26,1.95-2.77.98-6.06,2.57-10.01,4.78-4.93,2.77-8.63,5.39-11.35,8.11-3.23,3.44-5.85,6.73-7.7,9.76-1.59,2.72-2.88,5.75-3.8,8.99-.92,3.29-1.44,6.57-1.44,9.65,0,5.34,1.59,10.37,4.72,15.04,2.62,3.9,6.01,7.19,10.17,9.7,3.9,2.41,8.06,4.21,12.27,5.29,4.16,1.08,8.68,1.59,13.45,1.59,2.11,0,3.85-.05,5.34-.21,1.39-.1,3.7-.41,6.93-.82.36-.05.87-.1,1.44-.15l4.36-.41-1.69-19.51-4.72,1.18h0Z"/>
      <path class="st1" d="M877.93,17.92l.15-5.13h-22.28l.46,34.2-.31,39.23h22.08l-.15-5.13c-.15-4.93-.26-10.32-.41-16.28-.15-5.9-.21-11.6-.21-17.15,0-4.78.05-9.81.21-15.1.15-5.34.26-10.22.41-14.63h.05Z"/>
      <path class="st1" d="M1008.4,42.57c-5.96-3.49-8.42-5.49-9.4-6.47.36-.51,1.18-1.34,2.72-2.31,3.29-2.16,7.91-3.75,13.76-4.78l5.55-.98-5.7-18.84-4.72,1.44c-.87.26-1.54.46-2.21.62-3.7,1.08-6.26,1.9-7.6,2.41-6.68,2.62-11.86,5.49-15.71,8.73-5.29,4.42-7.96,9.29-7.96,14.53,0,4.36,1.95,8.37,5.8,11.86,2.21,2,5.65,4.31,10.58,7.14,1.59.92,4.06,2.16,7.39,3.8,1.13.77,1.13,1.28,1.13,1.44,0,.72,0,2.46-3.9,4.36-1.95.98-6.16,2.46-14.84,4.16l-5.85,1.13,7.03,18.18,4.31-1.18c6.21-1.64,10.68-2.98,13.61-4.01,4.36-1.54,7.7-3.18,9.96-4.88,3.95-2.67,6.68-5.19,8.22-7.65,1.69-2.72,2.52-6.32,2.52-11.04,0-6.11-4.78-11.86-14.58-17.66h-.1Z"/>
      <path class="st1" d="M560.65,20.29c-7.8-4.78-17.66-7.19-29.01-7.19h-.05c-2.16-.1-4.21-.21-6.21-.26h-11.04l-.15,73.27h22.85v-19.72c.26-.05.51-.1.77-.21,2-.46,3.7-.98,4.88-1.39,4.42-1.49,9.04-3.8,13.66-6.83,4.01-2.57,6.83-4.83,8.63-6.93,1.85-2.11,3.18-4.21,4.06-6.32s1.28-4.36,1.28-6.62c0-7.7-3.34-13.81-9.7-17.82h.05ZM549.71,38.26c.41,8.06-15.92,14.22-15.92,14.22v-25.31c16.59,0,15.92,11.04,15.92,11.04v.05Z"/>
      <path class="st1" d="M607.79,6.42l-42.52,73.43,18.33,10.83,7.75-16.12,34.56-.51,9.5,16.43,18.33-11.14-45.96-72.91h0ZM598.7,59.72l9.45-17.87,9.45,17.87h-18.9Z"/>
      <g>
        <polygon class="st1" points="733.59 48.32 740.88 48.12 737.23 41.8 733.59 48.32"/>
        <polygon class="st1" points="699.91 67.83 699.91 67.83 699.91 67.94 699.91 67.83"/>
        <path class="st1" d="M700.37,67.83l-22.28.36v-27.21l.87-28.04h-21.51l.15,5.13c.15,5.49.26,10.94.31,16.28,0,5.39.05,12.27.05,20.49l-.56,31.22,48.22,1.18v-19.36l-5.29-.1.05.05Z"/>
      </g>
      <path class="st1" d="M744.27,6.22l-42.52,73.43,18.33,10.83,7.75-16.12,34.56-.51,9.5,16.43,18.33-11.14-45.96-72.91h0ZM735.18,59.52l9.45-17.87,9.45,17.87h-18.9Z"/>
      <path class="st1" d="M970.2,30.76c-2.21-4.83-5.44-8.73-9.35-11.45-4.16-3.34-8.63-5.6-13.25-6.73-4.31-1.08-9.29-1.64-14.79-1.64-4.36,0-8.52.62-12.37,1.8-3.8,1.18-7.5,2.88-10.99,5.03-3.54,2.21-6.78,4.98-9.6,8.22-3.23,3.7-5.65,7.65-7.19,11.91l-1.85,6.11c-.31,1.34-.51,2.72-.62,4.11-.1,1.28-.15,2.52-.15,3.7,0,.72,0,1.44.05,2.16l.21,3.08c.87,6.21,3.08,11.6,6.57,15.97,3.18,4.01,7.5,7.34,12.84,9.91,6.01,2.93,12.58,4.36,19.51,4.36h1.64c.82,0,1.64,0,2.36-.1,6.62-.46,12.63-1.95,17.77-4.47,5.19-2.52,9.7-6.11,13.45-10.63,5.9-7.24,8.93-15.46,8.93-24.44,0-6.52-1.08-12.17-3.23-16.84l.05-.05ZM931.84,72.76c-9.81,0-17.72-10.73-17.72-23.98s7.91-23.98,17.72-23.98,17.72,10.73,17.72,23.98-7.91,23.98-17.72,23.98Z"/>
    </g>
    <g>
      <path class="st2" d="M191.72,73.58v-20.85l-20.74-.31.36,9.19-.15,7.75c-3.23.41-7.34.31-10.89-.21-1.95-.26-3.9-.77-5.85-1.54-8.27-3.03-9.29-7.8-9.29-11.6,0-2.67.67-5.03,2.05-7.19,1.28-2,3.34-4.26,6.26-6.73,2.57-2.21,5.19-4.06,7.75-5.49,2.62-1.44,6.01-2.82,10.01-4.16,2.88-.87,6.11-1.64,9.6-2.21l2.77-.46-2.26-20.08-4.72,1.23c-4.42,1.18-8.47,2.41-12.02,3.7-3.54,1.28-6.88,2.62-9.91,4.01-4.21,2.05-8.27,4.47-12.07,7.19-4.67,3.39-8.42,6.93-10.99,10.47-2.57,3.49-4.36,6.42-5.49,9.04-1.49,3.44-2.26,7.24-2.26,11.19,0,3.23.46,6.16,1.39,8.73.92,2.52,2.31,4.98,4.21,7.39,2.67,3.34,5.55,6.01,8.58,7.96,2.98,1.95,6.78,3.59,11.45,5.03,3.95,1.28,7.86,1.95,11.55,1.95,5.44,0,10.22-.26,14.27-.72,4.11-.46,8.52-1.39,13.2-2.72l4.06-1.13-.56-4.31c-.21-1.69-.31-3.44-.31-5.19v.05Z"/>
      <path class="st2" d="M319.83,17.26c.26,2.93.41,5.9.51,8.93.1,3.13.1,6.52.1,10.27,0,8.01-.36,14.33-1.08,18.79-.87,5.19-2.77,8.99-5.6,11.25-2.31,1.85-5.24,2.72-8.88,2.72-3.39,0-6.21-.92-8.63-2.88-2.88-2.31-4.83-5.7-5.96-10.37-.67-2.88-1.03-5.44-1.08-7.65,0-2.52-.05-5.34-.05-8.42,0-2.21.15-6.78.51-13.76.1-1.9.21-4.47.36-7.7l.26-5.24h-21.51l-.67,20.18c0,.62.1,2.88.26,6.83.15,3.7.26,6.57.26,8.58s0,3.54.15,4.72c.1,1.28.31,2.88.72,4.88,1.9,8.58,5.75,15.51,11.45,20.64,6.26,5.7,14.27,8.58,23.72,8.58s16.79-2.36,22.7-6.98c5.19-4.06,8.83-9.6,10.83-16.43,1.28-3.95,2-6.57,2.31-8.37.31-1.75.46-3.8.46-6.06V11.81h-21.72l.46,5.39.1.05Z"/>
      <path class="st2" d="M264.99,73.28c-4.36-4.47-8.68-8.99-12.94-13.5-2.52-2.62-4.62-4.83-6.37-6.73,18.69-6.88,17.2-21.16,17.2-21.16-.82-11.3-17.25-15.76-25.21-17.3-.67-.21-1.23-.31-1.75-.36l-3.95-.46c-3.75-.31-7.7-.51-11.86-.67-4.16-.15-7.75-.21-10.83-.21h-4.98v73.43h21.77l-.46-24.34-.1-35.48s28.19-.62,3.49,27.11l22.95,36.76,17-12.99-3.9-4.01-.05-.1Z"/>
      <path class="st2" d="M399.88,20.44c-7.8-4.78-17.66-7.19-29.01-7.19h-.05c-2.16-.1-4.21-.21-6.21-.26h-11.04l-.15,73.27h22.85v-19.72c.26-.05.51-.1.77-.21,2-.46,3.7-.98,4.88-1.39,4.42-1.49,9.04-3.8,13.66-6.83,4.01-2.57,6.83-4.83,8.63-6.93,1.85-2.11,3.18-4.21,4.06-6.32s1.28-4.36,1.28-6.62c0-7.7-3.34-13.81-9.7-17.82h.05ZM388.94,38.46c.41,8.06-15.92,14.22-15.92,14.22v-25.31c16.59,0,15.92,11.04,15.92,11.04v.05Z"/>
      <path class="st2" d="M491.43,30.2c-2.21-4.83-5.44-8.73-9.35-11.45-4.16-3.34-8.63-5.6-13.25-6.73-4.31-1.08-9.29-1.64-14.79-1.64-4.36,0-8.52.62-12.37,1.8-3.8,1.18-7.5,2.88-10.99,5.03-3.54,2.21-6.78,4.98-9.6,8.22-3.23,3.7-5.65,7.65-7.19,11.91l-1.85,6.11c-.31,1.34-.51,2.72-.62,4.11-.1,1.28-.15,2.52-.15,3.7,0,.72,0,1.44.05,2.16l.21,3.08c.87,6.21,3.08,11.6,6.57,15.97,3.18,4.01,7.5,7.34,12.84,9.91,6.01,2.93,12.58,4.36,19.51,4.36h1.64c.82,0,1.64,0,2.36-.1,6.62-.46,12.63-1.95,17.77-4.47,5.19-2.52,9.7-6.11,13.45-10.63,5.9-7.24,8.93-15.46,8.93-24.44,0-6.52-1.08-12.17-3.23-16.84l.05-.05ZM453.03,72.2c-9.81,0-17.71-10.73-17.71-23.98s7.91-23.98,17.71-23.98,17.71,10.73,17.71,23.98-7.91,23.98-17.71,23.98Z"/>
    </g>
  </g>
  <g>
    <path class="st0" d="M48.18,4.02C23.61,4.02,3.68,23.95,3.68,48.52c0,14.72,7.15,27.77,18.17,35.87,1.13.83,2.31,1.61,3.52,2.34v6.99h45.64v-6.99c1.21-.72,2.38-1.51,3.52-2.34,11.02-8.1,18.17-21.15,18.17-35.87,0-24.58-19.92-44.5-44.5-44.5h-.02ZM48.18,7.7c12.73,0,24.11,5.83,31.59,14.97l-24.5,24.1h-3.05c-.19-.75-.59-1.41-1.12-1.93l10.21-17.06-1.67-1-10.21,17.06c-.4-.13-.81-.2-1.25-.2-.63,0-1.23.14-1.76.39-1.12.52-1.97,1.52-2.28,2.74h-3.05l-24.5-24.1c7.49-9.14,18.86-14.97,31.59-14.97h0ZM48.18,89.34c-22.54,0-40.82-18.28-40.82-40.82,0-8.71,2.73-16.79,7.39-23.42l22.03,21.67,2.15,2.11h5.21c.32,1.22,1.17,2.22,2.28,2.74.54.25,1.13.39,1.76.39s1.23-.14,1.76-.39c1.12-.52,1.97-1.52,2.28-2.74h5.21l2.15-2.11,22.03-21.67c4.65,6.63,7.39,14.71,7.39,23.42,0,22.54-18.28,40.82-40.82,40.82Z"/>
    <path class="st1" d="M81.62,25.1l-22.03,21.67-2.15,2.11h-5.21c-.32,1.22-1.17,2.22-2.28,2.74-.54.25-1.13.39-1.76.39s-1.23-.14-1.76-.39c-1.12-.52-1.97-1.52-2.28-2.74h-5.21l-2.15-2.11L14.75,25.1c-4.65,6.63-7.39,14.71-7.39,23.42,0,22.54,18.28,40.82,40.82,40.82s40.82-18.28,40.82-40.82c0-8.71-2.73-16.79-7.39-23.42h.01Z"/>
    <path class="st2" d="M44.14,46.77c.32-1.22,1.17-2.22,2.28-2.74.54-.25,1.13-.39,1.76-.39.44,0,.86.07,1.25.2l10.21-17.06,1.67,1-10.21,17.06c.53.52.93,1.18,1.12,1.93h3.05l24.5-24.1c-7.49-9.14-18.86-14.97-31.59-14.97s-24.11,5.83-31.59,14.97l24.5,24.1h3.05Z"/>
    <path class="st1" d="M48.18.34C21.57.34,0,21.91,0,48.52c0,16.89,8.69,31.75,21.85,40.36v6.6c0,.97.79,1.76,1.76,1.76h49.16c.97,0,1.76-.79,1.76-1.76v-6.6c13.15-8.6,21.85-23.46,21.85-40.35-.01-26.62-21.59-48.19-48.2-48.19ZM74.52,84.4c-1.13.83-2.31,1.61-3.52,2.34v6.99H25.36v-6.99c-1.21-.72-2.38-1.51-3.52-2.34C10.83,76.3,3.68,63.25,3.68,48.52,3.68,23.95,23.61,4.02,48.18,4.02s44.5,19.92,44.5,44.5c0,14.72-7.15,27.77-18.17,35.87h0Z"/>
  </g>
</svg>